<svg width="27" height="21" viewBox="0 0 27 21" fill="none" xmlns="http://www.w3.org/2000/svg">
<path d="M2.80078 15.3086C1.21875 15.3086 0.421875 14.5117 0.421875 12.8125V8.32422C0.421875 6.625 1.20703 5.81641 2.80078 5.81641H6.16406C6.26953 5.81641 6.36328 5.78125 6.44531 5.71094L11.7305 1.02344C12.3398 0.472656 12.7031 0.214844 13.2656 0.214844C14.0391 0.214844 14.6133 0.835938 14.6133 1.59766V19.5742C14.6133 20.3359 14.0391 20.8867 13.2891 20.8867C12.7266 20.8867 12.293 20.6523 11.7305 20.1484L6.44531 15.4141C6.36328 15.3438 6.26953 15.3086 6.16406 15.3086H2.80078ZM22.9102 18.5898C22.4766 18.2969 22.418 17.7461 22.7461 17.2656C24 15.4375 24.7617 13.0352 24.7617 10.5391C24.7617 8.04297 24.0234 5.61719 22.7461 3.8125C22.4062 3.33203 22.4766 2.78125 22.9102 2.48828C23.3438 2.19531 23.8828 2.30078 24.1992 2.74609C25.7109 4.78516 26.5781 7.64453 26.5781 10.5391C26.5781 13.4336 25.6992 16.2695 24.1992 18.332C23.8828 18.7773 23.3438 18.8828 22.9102 18.5898ZM2.88281 13.5977H6.63281C6.9375 13.5977 7.17188 13.668 7.44141 13.9023L12.4336 18.4141C12.5039 18.4727 12.5742 18.5078 12.6328 18.5078C12.7148 18.5078 12.7852 18.4375 12.7852 18.332V2.75781C12.7852 2.65234 12.7148 2.59375 12.6328 2.59375C12.5508 2.59375 12.4922 2.62891 12.4336 2.6875L7.44141 7.22266C7.17188 7.46875 6.9375 7.52734 6.63281 7.52734H2.88281C2.44922 7.52734 2.25 7.72656 2.25 8.17188V12.9648C2.25 13.3984 2.44922 13.5977 2.88281 13.5977ZM18.5742 15.5312C18.0938 15.1914 18.0352 14.6289 18.3867 14.1367C19.0547 13.1875 19.4531 11.8984 19.4531 10.5391C19.4531 9.17969 19.0664 7.87891 18.3867 6.94141C18.0234 6.46094 18.0938 5.875 18.5742 5.54688C18.9609 5.26562 19.5117 5.35938 19.8281 5.81641C20.7305 7.01172 21.2695 8.74609 21.2695 10.5391C21.2695 12.332 20.7305 14.0781 19.8281 15.2617C19.5117 15.7188 18.9609 15.8008 18.5742 15.5312Z" fill="#14001A"/>
</svg>
