<svg class="logo-allright" width="160" height="30" viewBox="0 0 160 30" fill="none" xmlns="http://www.w3.org/2000/svg" aria-labelledby="logo-allright-title" role="img" aria-label="">
  <title id="logo-allright-title"></title>
  <path fill-rule="evenodd" clip-rule="evenodd" d="M99.8155 10.3643C99.8155 13.2131 98.1768 15.4992 95.5591 16.5231L98.6868 20.6048C99.1254 21.1847 99.3623 21.7565 99.3623 22.2863C99.3623 22.968 99.1173 23.559 98.6852 23.98C98.2531 24.401 97.6465 24.6397 96.9468 24.6397C96.1174 24.6397 95.4545 24.279 94.9368 23.6171L94.9359 23.6159L90.2239 17.3981H87.3671V22.1686C87.3671 23.6062 86.3063 24.6397 84.8308 24.6397C83.3836 24.6397 82.3246 23.6043 82.3246 22.1686V5.91934C82.3246 4.51121 83.3854 3.4777 84.8308 3.4777H91.9916C94.2998 3.4777 96.1654 4.10869 97.6305 5.38423C99.0994 6.6631 99.8155 8.3397 99.8155 10.3643ZM118.06 23.1678C119.894 23.1678 121.399 22.6553 122.531 21.617C122.492 22.8504 122.068 23.7954 121.334 24.4417C120.56 25.1227 119.415 25.4966 117.939 25.4966C116.497 25.4966 115.05 25.1243 113.564 24.3715L113.558 24.3684L113.551 24.3657C113.065 24.1582 112.638 24.0248 112.289 24.0248C111.711 24.0248 111.216 24.2189 110.866 24.5684C110.516 24.9173 110.327 25.4054 110.327 25.966C110.327 26.7289 110.741 27.348 111.515 27.7887C113.338 28.9318 115.615 29.4967 118.302 29.4967C121.154 29.4967 123.391 28.6886 124.981 27.0483C126.566 25.413 127.364 23.2099 127.364 20.4907V10.9236C127.364 10.286 127.134 9.73232 126.733 9.33743C126.332 8.94245 125.771 8.71749 125.13 8.71749C124.045 8.71749 123.216 9.37774 122.966 10.3479C121.7 9.17022 120.11 8.5703 118.211 8.5703C115.898 8.5703 113.97 9.2631 112.446 10.6878L112.445 10.6886L112.444 10.6892C110.952 12.1124 110.206 13.8729 110.206 15.9574C110.206 17.957 110.955 19.6585 112.476 21.0797L112.477 21.0805L112.478 21.0812C113.999 22.4731 115.865 23.1678 118.06 23.1678ZM122.684 15.9868C122.684 16.9279 122.318 17.7278 121.574 18.3974C120.861 19.0364 119.946 19.3737 118.845 19.3737C117.747 19.3737 116.832 19.0377 116.087 18.3975C115.373 17.7277 115.007 16.9273 115.007 15.9868C115.007 15.0443 115.374 14.2447 116.087 13.6056L116.087 13.6055C116.831 12.9365 117.746 12.5998 118.845 12.5998C119.946 12.5998 120.859 12.9369 121.571 13.6026L121.574 13.6056L121.577 13.6083C122.318 14.2469 122.684 15.0449 122.684 15.9868ZM155.014 18.6656V12.747H158.038C158.617 12.747 159.111 12.5529 159.461 12.2034C159.811 11.8545 160 11.3664 160 10.8059C160 10.2453 159.811 9.75728 159.461 9.40835C159.111 9.05889 158.617 8.86467 158.038 8.86467H155.014V7.42063C155.014 6.74067 154.779 6.15644 154.353 5.74167C153.927 5.32691 153.328 5.09673 152.629 5.09673C151.932 5.09673 151.326 5.32668 150.893 5.74027C150.459 6.15423 150.214 6.73863 150.214 7.42063V8.86467H149.185C148.594 8.86467 148.092 9.05786 147.736 9.40745C147.382 9.75666 147.193 10.2453 147.193 10.8059C147.193 11.3665 147.382 11.8551 147.736 12.2043C148.092 12.5538 148.594 12.747 149.185 12.747H150.214V19.7547C150.214 21.3289 150.72 22.5938 151.654 23.4643C152.585 24.3336 153.919 24.7869 155.53 24.7869C156.515 24.7869 157.441 24.6669 158.307 24.4256L158.314 24.4237L158.321 24.4213C158.846 24.235 159.261 23.9652 159.545 23.6069C159.83 23.2468 159.97 22.8115 159.97 22.3158C159.97 21.7257 159.772 21.2269 159.396 20.8762C159.019 20.5266 158.487 20.3451 157.857 20.3451C157.816 20.3451 157.741 20.3555 157.672 20.365L157.668 20.3655L157.614 20.373V20.3731C157.545 20.3828 157.462 20.3942 157.373 20.4057C157.143 20.4349 156.875 20.4628 156.648 20.4628C156.067 20.4628 155.673 20.3053 155.418 20.0273C155.161 19.7447 155.014 19.302 155.014 18.6656ZM87.3671 7.68392H91.4176C92.4796 7.68392 93.3166 7.98821 93.8857 8.4951C94.4532 9.00049 94.773 9.72351 94.773 10.5998C94.773 11.4761 94.4532 12.1991 93.8857 12.7046C93.3166 13.2114 92.4796 13.5158 91.4176 13.5158H87.3671V7.68392ZM105.178 7.56617C106.828 7.56617 108.017 6.45067 108.017 4.88904C108.017 3.35844 106.83 2.21191 105.178 2.21191C103.498 2.21191 102.309 3.3569 102.309 4.88904C102.309 5.66217 102.602 6.33485 103.114 6.8138C103.626 7.29225 104.345 7.56617 105.178 7.56617ZM105.178 8.71749C104.463 8.71749 103.848 8.96401 103.413 9.39255C102.977 9.82081 102.732 10.4188 102.732 11.1003V22.2569C102.732 22.9384 102.977 23.5364 103.413 23.9646C103.848 24.3932 104.463 24.6397 105.178 24.6397C105.88 24.6397 106.487 24.3922 106.918 23.9639C107.349 23.5358 107.594 22.9382 107.594 22.2569V11.1003C107.594 10.4188 107.349 9.82129 106.918 9.39325C106.487 8.96487 105.88 8.71749 105.178 8.71749ZM140.039 8.5703C138.088 8.5703 136.522 9.22979 135.384 10.5726V5.65441C135.384 4.33459 134.353 3.33051 132.998 3.33051C132.301 3.33051 131.694 3.56046 131.262 3.97405C130.828 4.38802 130.583 4.97241 130.583 5.65441V22.2863C130.583 22.968 130.828 23.559 131.26 23.98C131.692 24.401 132.299 24.6397 132.998 24.6397C133.698 24.6397 134.298 24.4007 134.723 23.9785C135.148 23.5568 135.384 22.966 135.384 22.2863V16.3414C135.399 15.1864 135.734 14.3354 136.272 13.775C136.807 13.216 137.564 12.9237 138.468 12.9237C139.321 12.9237 140.022 13.2131 140.514 13.7753C141.007 14.3416 141.309 15.2086 141.309 16.3989V22.2863C141.309 22.966 141.546 23.5568 141.97 23.9785C142.395 24.4007 142.994 24.6397 143.694 24.6397C144.394 24.6397 145.001 24.401 145.433 23.98C145.865 23.559 146.109 22.968 146.109 22.2863V15.0154C146.109 13.0329 145.523 11.4454 144.358 10.3091C143.199 9.14997 141.754 8.5703 140.039 8.5703ZM49.7241 3.94044C50.2911 4.35084 50.7344 4.95888 51.062 5.74855L57.5586 20.7332L57.5597 20.7359C57.774 21.2729 57.9063 21.7429 57.9063 22.1641C57.9063 22.8744 57.6544 23.4943 57.2079 23.9374C56.761 24.381 56.1314 24.6352 55.4002 24.6352C54.8035 24.6352 54.2883 24.4852 53.8642 24.1702C53.4429 23.8573 53.1288 23.3943 52.9078 22.7963L51.8143 20.1608H43.2452L42.1808 22.7674L42.1802 22.7684C41.9452 23.3637 41.6327 23.8317 41.2298 24.1514C40.8233 24.4739 40.3374 24.6352 39.7792 24.6352C38.368 24.6352 37.3335 23.6349 37.3335 22.3113C37.3335 21.9461 37.4681 21.5028 37.6802 20.9715L37.6813 20.9686L44.3002 5.74538L44.3009 5.74392C44.6586 4.95579 45.1167 4.34935 45.6862 3.94002C46.2582 3.52899 46.9299 3.32609 47.6955 3.32609C48.4749 3.32609 49.1547 3.52837 49.7241 3.94044ZM44.7703 16.1901L47.5434 9.30301L50.2895 16.1901H44.7703ZM62.3006 3.32609C61.5872 3.32609 60.9729 3.56391 60.5365 3.98505C60.1 4.40628 59.855 4.99766 59.855 5.67943V22.2524C59.855 22.9339 60.0997 23.5319 60.5351 23.9601C60.9707 24.3887 61.5851 24.6352 62.3006 24.6352C63.0024 24.6352 63.6091 24.3878 64.0405 23.9594C64.4714 23.5314 64.7161 22.9339 64.7161 22.2524V5.67943C64.7161 4.99773 64.4711 4.40675 64.0391 3.98575C63.6069 3.56473 63.0003 3.32609 62.3006 3.32609ZM70.6804 3.32609C69.967 3.32609 69.3528 3.56391 68.9163 3.98505C68.4798 4.40628 68.2348 4.99766 68.2348 5.67943V22.2524C68.2348 22.9339 68.4795 23.5319 68.9149 23.9601C69.3505 24.3887 69.9649 24.6352 70.6804 24.6352C71.3822 24.6352 71.989 24.3878 72.4203 23.9594C72.8512 23.5314 73.096 22.9339 73.096 22.2524V5.67943C73.096 4.99773 72.851 4.40675 72.4189 3.98575C71.9868 3.56473 71.3801 3.32609 70.6804 3.32609Z" fill="#823CDC"></path>
  <path fill-rule="evenodd" clip-rule="evenodd" d="M12.3158 25.4498C11.734 24.3521 12.1739 23.0016 13.2986 22.4335C15.8318 21.1541 20.5095 18.37 23.9684 15.1771C25.7095 13.5698 26.9851 12.0004 27.6042 10.6006C28.187 9.28324 28.1236 8.31724 27.5516 7.45919C26.4298 5.77597 23.91 4.89611 21.454 5.6044C19.2236 6.24764 16.8814 8.31906 16.6426 12.9428C16.6302 13.1841 16.5922 13.7412 16.2944 14.2833C16.1226 14.5959 15.7881 15.0414 15.19 15.3215C14.5632 15.6153 13.9486 15.587 13.5063 15.4715C12.8001 15.287 12.3429 14.8361 12.2069 14.702L12.204 14.6991C11.9932 14.4913 11.8035 14.2587 11.6498 14.0594C11.3688 13.6948 11.0461 13.2258 10.7303 12.7672C10.7002 12.7234 10.6701 12.6797 10.6401 12.6362C10.2785 12.1112 9.89231 11.5545 9.47355 10.9974C8.60993 9.84855 7.73182 8.87038 6.88665 8.29359C6.08453 7.7462 5.64389 7.76238 5.30529 7.8963C4.79683 8.0974 4.68153 8.32061 4.62389 8.58083C4.53365 8.9881 4.57797 9.74497 5.05444 10.8847C5.99851 13.1427 8.27028 16.0099 11.4617 18.5507C12.443 19.3319 12.5897 20.7418 11.7894 21.6996C10.9891 22.6576 9.54476 22.8008 8.56344 22.0196C4.99047 19.175 2.13114 15.739 0.808723 12.576C0.151919 11.005 -0.220876 9.27185 0.141824 7.63469C0.537102 5.85047 1.74477 4.47482 3.58324 3.74769C5.88743 2.83633 7.98726 3.58299 9.51414 4.62501C10.9012 5.57162 12.0748 6.91809 12.9844 8.10387C14.3411 4.50322 17.0231 2.21477 20.1547 1.31161C24.238 0.133965 28.9966 1.41908 31.3954 5.01806C33.0223 7.45893 32.8288 10.0816 31.8143 12.3751C30.8363 14.586 29.0475 16.6492 27.1192 18.4294C23.2392 22.011 18.1574 25.0194 15.4059 26.4092C14.2813 26.9772 12.8978 26.5477 12.3158 25.4498Z" fill="#FE8B21"></path>
</svg>
