<svg width="18" height="13" viewBox="0 0 18 13" fill="none" xmlns="http://www.w3.org/2000/svg">
<path fill-rule="evenodd" clip-rule="evenodd" d="M14.9677 11.4829C14.6297 11.8084 14.1816 12.0177 13.6877 12.053L12.3228 12.1507C9.44462 12.3566 6.55538 12.3566 3.67717 12.1507L2.4155 12.0604C1.41881 11.9891 0.596718 11.2523 0.417119 10.2693C0.0532321 8.27773 -0.00906499 6.24274 0.232318 4.23263L0.45939 2.3417C0.594145 1.21952 1.54615 0.375 2.67639 0.375H4.58602C5.51749 0.375 6.29354 1.04038 6.46481 1.92177L13.3935 1.92177C14.4821 1.92177 15.4094 2.71278 15.581 3.7878L15.6344 4.12232C15.6456 4.19261 15.6564 4.26295 15.6668 4.33333H15.9468C17.1738 4.33333 18.0174 5.56652 17.5727 6.7101L16.5315 9.38747C16.2082 10.2189 15.6658 10.9418 14.9677 11.4829ZM14.3466 3.98482L14.4 4.31935C14.4008 4.32401 14.4015 4.32867 14.4022 4.33333H6.64202C5.6956 4.33333 4.84653 4.91512 4.50488 5.79772L2.56168 10.8177L2.5047 10.8136C2.0768 10.783 1.72387 10.4666 1.64676 10.0446C1.3054 8.17635 1.24696 6.26734 1.4734 4.38166L1.70047 2.49073C1.75979 1.99676 2.17886 1.625 2.67639 1.625H4.58602C4.95273 1.625 5.25 1.92227 5.25 2.28897C5.25 2.77653 5.64524 3.17177 6.13279 3.17177H13.3935C13.8678 3.17177 14.2719 3.51642 14.3466 3.98482ZM3.86597 10.9109C6.65184 11.1055 9.44801 11.1031 12.2336 10.9038L13.5985 10.8062L13.7607 10.791L13.7595 10.789C14.4933 10.375 15.0611 9.71965 15.3665 8.93441L16.4077 6.25704C16.5337 5.93289 16.2946 5.58333 15.9468 5.58333H6.64202C6.21183 5.58333 5.82589 5.84778 5.67059 6.24897L3.86597 10.9109Z" fill="white"/>
</svg>
