<svg width="16" height="17" viewBox="0 0 16 17" fill="none" xmlns="http://www.w3.org/2000/svg">
<path d="M8 16.3281C3.64844 16.3281 0.03125 12.7109 0.03125 8.35938C0.03125 4 3.64062 0.390625 7.99219 0.390625C12.3516 0.390625 15.9688 4 15.9688 8.35938C15.9688 12.7109 12.3594 16.3281 8 16.3281ZM8 15C11.6875 15 14.6406 12.0469 14.6406 8.35938C14.6406 4.67188 11.6797 1.71875 7.99219 1.71875C4.30469 1.71875 1.36719 4.67188 1.36719 8.35938C1.36719 12.0469 4.3125 15 8 15ZM7.14062 12.0703C6.88281 12.0703 6.67188 11.9609 6.47656 11.7031L4.57031 9.35938C4.46094 9.21094 4.39062 9.04688 4.39062 8.875C4.39062 8.53125 4.65625 8.25781 4.99219 8.25781C5.21094 8.25781 5.38281 8.32031 5.57031 8.57031L7.10938 10.5625L10.3516 5.35938C10.5 5.13281 10.6953 5.00781 10.8906 5.00781C11.2188 5.00781 11.5312 5.23438 11.5312 5.58594C11.5312 5.75781 11.4297 5.92969 11.3438 6.08594L7.77344 11.7031C7.61719 11.9453 7.39844 12.0703 7.14062 12.0703Z" fill="#14001A"/>
</svg>
